<svg width="720" height="128" viewBox="0 0 720 128" fill="none" xmlns="http://www.w3.org/2000/svg">
<path fill-rule="evenodd" clip-rule="evenodd" d="M0 21.0471L10.8395 10.2076C24.4496 -3.40253 46.516 -3.40253 60.1262 10.2076L72.8331 22.9146L91.508 4.23944V106.953H117.654L106.814 117.793C93.204 131.402 71.1375 131.402 57.5275 117.793L45.7542 106.019L26.1452 125.628V21.0471H0ZM44.8204 21.0444L72.8331 49.0571V106.95L44.8204 78.9374V21.0444Z" fill="#151414"/>
<path d="M185.686 104L154.102 55.9041V104H140.758V35.0721H156.502L186.55 80.7681V35.0721H199.99V104H185.686ZM244.211 82.4001V52.7361H257.459V104H245.267V97.2801C242.483 101.792 236.819 104.96 230.291 104.96C220.019 104.96 212.531 98.7201 212.531 85.3761V52.7361H225.875V82.7841C225.875 89.9841 229.427 93.1521 234.803 93.1521C239.603 93.1521 244.211 89.3121 244.211 82.4001ZM282.793 104H269.449V52.7361H281.737V60.0321C285.481 54.8481 290.281 51.7761 297.097 51.7761C304.105 51.7761 309.481 55.0401 312.073 60.8961C316.105 55.2321 321.289 51.7761 328.969 51.7761C339.337 51.7761 346.345 58.5921 346.345 70.8801V104H333.097V75.1041C333.097 67.9041 330.025 63.5841 324.169 63.5841C318.889 63.5841 314.569 67.7121 314.569 75.3921V104H301.321V75.1041C301.321 67.9041 298.249 63.5841 292.393 63.5841C287.017 63.5841 282.793 67.7121 282.793 75.3921V104ZM408.93 78.3681C408.93 93.3441 400.002 104.96 386.178 104.96C379.554 104.96 373.986 101.984 370.05 96.6081V104H357.762V35.0721H371.106V59.3601C374.85 54.3681 380.034 51.7761 386.178 51.7761C400.002 51.7761 408.93 63.2001 408.93 78.3681ZM395.202 78.3681C395.202 68.5761 389.73 63.5841 383.202 63.5841C376.77 63.5841 371.202 68.4801 371.202 78.1761C371.202 87.8721 376.578 93.0561 383.202 93.0561C389.73 93.0561 395.202 87.9681 395.202 78.3681ZM439.752 104.864C424.392 104.864 414.12 94.2081 414.12 78.1761C414.12 62.9121 424.776 51.7761 439.56 51.7761C455.784 51.7761 466.536 64.9281 464.136 81.6321H427.752C428.616 89.9841 432.648 94.5921 439.464 94.5921C445.32 94.5921 449.256 91.7121 450.792 86.6241H464.04C461.16 98.2401 452.232 104.864 439.752 104.864ZM439.272 61.5681C433.032 61.5681 429.096 65.6001 427.944 73.1841H450.024C449.64 66.0801 445.608 61.5681 439.272 61.5681ZM486.418 79.1361V104H473.074V52.7361H485.362V62.6241C489.106 56.0961 497.074 52.1601 505.33 52.1601V65.9841C494.002 65.1201 486.418 67.8081 486.418 79.1361ZM564.676 105.44C544.804 105.44 529.444 90.0801 529.444 69.4401C529.444 48.8001 544.804 33.6321 564.676 33.6321C584.644 33.6321 600.1 48.8001 600.1 69.4401C600.1 90.0801 584.644 105.44 564.676 105.44ZM564.676 92.3841C577.348 92.3841 585.028 82.1121 585.028 69.4401C585.028 56.7681 577.348 46.6881 564.676 46.6881C552.1 46.6881 544.42 56.7681 544.42 69.4401C544.42 82.1121 552.1 92.3841 564.676 92.3841ZM622.355 76.0641V104H609.011V52.7361H621.299V60.0321C625.043 54.9441 630.323 51.7761 637.043 51.7761C647.315 51.7761 654.419 58.4961 654.419 70.8801V104H641.171V75.3921C641.171 67.8081 638.195 63.5841 632.147 63.5841C626.867 63.5841 622.355 67.8081 622.355 76.0641ZM688.19 104.864C672.83 104.864 662.558 94.2081 662.558 78.1761C662.558 62.9121 673.214 51.7761 687.998 51.7761C704.222 51.7761 714.974 64.9281 712.574 81.6321H676.19C677.054 89.9841 681.086 94.5921 687.902 94.5921C693.758 94.5921 697.694 91.7121 699.23 86.6241H712.478C709.598 98.2401 700.67 104.864 688.19 104.864ZM687.71 61.5681C681.47 61.5681 677.534 65.6001 676.382 73.1841H698.462C698.078 66.0801 694.046 61.5681 687.71 61.5681Z" fill="#151414"/>
</svg>
